<svg version="1.0" xmlns="http://www.w3.org/2000/svg"
 width="100pt" height="100pt" viewBox="0 0 500 500"
 preserveAspectRatio="xMidYMid meet"

 >

<g transform="translate(0.000000,500.000000) scale(0.100000,-0.100000)"
fill="#000000" stroke="none">

<path d="M3888 3860 c-3 -8 -14 -37 -23 -63 -34 -97 -121 -179 -219 -208 -47
-14 -61 -29 -27 -29 34 0 113 -42 159 -84 44 -40 102 -142 102 -178 0 -10 5
-18 10 -18 6 0 10 8 10 18 0 30 47 118 85 161 37 40 142 101 177 101 33 0 19
15 -28 29 -25 8 -67 28 -92 46 -57 39 -127 139 -140 197 -5 24 -11 36 -14 28z"/>
<path d="M2230 3845 c-192 -35 -385 -113 -549 -222 -123 -82 -281 -243 -370
-378 l-72 -110 -145 -12 c-264 -21 -452 -77 -495 -146 -27 -44 -24 -75 12
-131 l30 -48 25 23 c22 21 23 24 9 45 -32 49 -13 94 54 129 64 32 316 75 447
75 l33 0 -25 -60 c-26 -65 -29 -80 -14 -80 5 0 16 15 24 33 15 38 73 107 88
107 10 0 8 -22 -8 -102 -3 -16 -1 -28 4 -28 5 0 12 23 16 50 11 83 8 80 107
80 l89 0 0 -45 c0 -31 -5 -47 -17 -54 -44 -26 22 -9 129 33 62 25 125 48 140
51 26 7 27 5 31 -37 l4 -43 1 44 2 44 68 -7 c37 -3 107 -9 156 -12 74 -6 89
-10 93 -25 3 -10 9 -16 14 -13 5 3 6 10 3 16 -5 8 10 9 52 3 96 -12 313 -20
404 -15 l85 5 -92 13 -93 14 0 60 0 60 93 -6 c50 -4 127 -9 169 -12 l77 -6 3
-67 3 -66 9 63 c5 36 13 62 20 62 20 0 126 -20 219 -42 l88 -20 -6 -39 c-4
-25 -3 -39 4 -39 6 0 11 16 11 35 0 34 1 35 28 29 15 -4 70 -24 123 -46 138
-55 133 -57 125 55 -4 50 -11 111 -15 135 -5 26 -5 42 1 42 6 0 47 -24 93 -54
92 -60 94 -63 117 -198 6 -37 14 -65 18 -63 6 4 1 54 -15 140 -6 29 -4 29 39
-19 25 -27 50 -62 57 -78 6 -15 17 -28 25 -28 9 0 5 20 -16 71 -181 439 -583
757 -1055 834 -112 18 -353 18 -455 0z m228 -17 c-3 -9 -38 -15 -109 -19 -106
-5 -118 -4 -105 8 20 21 220 31 214 11z m219 -10 c10 -11 -7 -12 -85 -10 -108
3 -122 6 -122 23 0 16 189 4 207 -13z m-457 -7 c0 -8 -170 -44 -177 -37 -4 4
142 43 165 45 6 1 12 -3 12 -8z m582 -12 c44 -12 77 -23 75 -25 -6 -7 -161 27
-171 37 -15 14 10 11 96 -12z m-342 -58 l0 -59 -87 -6 c-49 -4 -114 -8 -145
-11 -67 -5 -69 -3 -34 72 l25 52 63 4 c35 2 89 4 121 5 l57 2 0 -59z m248 36
c13 -10 32 -50 46 -95 7 -21 5 -22 -51 -17 -32 3 -97 7 -145 11 l-88 6 0 60 0
61 113 -8 c61 -4 118 -12 125 -18z m-536 -57 c-18 -40 -34 -62 -47 -65 -11 -2
-58 -12 -105 -21 -47 -9 -96 -19 -109 -22 -24 -5 -24 -5 -7 24 10 16 32 46 50
67 29 34 40 40 121 57 134 28 128 30 97 -40z m671 41 c97 -21 104 -25 159 -94
45 -58 47 -69 11 -56 -16 5 -72 18 -127 28 -54 11 -102 23 -105 28 -4 4 -17
32 -29 61 -24 61 -29 59 91 33z m-936 -95 c-39 -60 -46 -66 -107 -87 -36 -12
-84 -30 -107 -40 -24 -10 -43 -16 -43 -13 0 14 70 90 107 115 31 22 170 86
190 89 2 0 -16 -29 -40 -64z m1165 27 c60 -22 86 -39 142 -95 39 -37 68 -70
65 -72 -3 -3 -43 10 -89 29 -47 19 -93 35 -102 35 -10 0 -30 19 -44 43 -15 23
-36 52 -47 65 -27 29 -14 28 75 -5z m-612 -66 l0 -34 -122 -7 c-68 -3 -139 -9
-159 -12 -35 -6 -36 -6 -31 25 2 17 9 34 16 38 17 11 100 20 204 22 l92 1 0
-33z m242 24 c32 -4 60 -9 63 -12 2 -3 8 -20 11 -39 l7 -33 -39 6 c-21 4 -92
10 -156 14 l-118 6 0 34 0 33 88 -1 c48 0 113 -4 144 -8z m-566 -43 c-8 -40
-15 -44 -85 -53 -31 -4 -89 -16 -130 -26 -41 -10 -76 -18 -77 -16 -2 2 4 18
14 37 18 37 22 38 172 70 117 25 114 26 106 -12z m822 1 c88 -20 94 -23 109
-55 19 -39 15 -48 -18 -35 -13 5 -71 17 -129 26 -58 10 -110 22 -116 27 -7 5
-14 23 -16 39 l-5 31 41 -5 c23 -4 83 -16 134 -28z m-1322 -71 c-19 -24 -59
-56 -88 -71 l-53 -28 35 32 c48 43 131 109 137 109 2 0 -12 -19 -31 -42z m199
-1 c-10 -25 -24 -39 -43 -44 -15 -3 -65 -21 -111 -39 -47 -19 -87 -32 -89 -29
-11 10 37 68 68 82 49 22 184 71 188 68 1 -1 -5 -18 -13 -38z m1414 -22 c44
-20 62 -35 74 -61 9 -19 15 -34 14 -34 -2 0 -51 18 -110 40 -58 22 -110 40
-114 40 -8 0 -33 56 -33 73 0 8 93 -24 169 -58z m111 -14 l65 -61 -56 33 c-30
17 -68 49 -82 70 -37 52 -10 36 73 -42z m-902 17 l-3 -53 -122 -6 c-67 -4
-141 -9 -166 -13 l-44 -7 8 52 c5 28 11 54 14 57 10 11 98 19 208 21 l108 1
-3 -52z m323 35 c4 -4 11 -32 15 -62 l7 -54 -29 6 c-16 4 -91 10 -166 13
l-138 7 0 55 0 55 152 -6 c83 -4 155 -10 159 -14z m-661 -37 c0 -57 -16 -86
-46 -86 -15 0 -78 -12 -141 -26 -63 -14 -117 -23 -120 -20 -3 3 0 28 7 55 14
57 14 58 180 92 121 25 120 25 120 -15z m812 14 c148 -31 163 -38 177 -95 7
-26 10 -49 8 -51 -2 -3 -42 5 -88 15 -46 11 -114 25 -151 32 -67 11 -68 11
-68 43 0 17 -3 41 -6 54 -8 28 -1 28 128 2z m-1122 -55 c0 -2 -5 -26 -11 -54
l-10 -50 -67 -22 c-37 -12 -91 -33 -121 -46 -29 -13 -55 -22 -58 -20 -2 3 4
29 14 58 l18 54 105 42 c98 40 130 49 130 38z m1447 -43 c97 -38 100 -41 123
-120 8 -30 7 -33 -8 -27 -9 4 -64 25 -122 47 -58 22 -106 41 -108 43 -2 2 -9
26 -17 55 l-14 52 27 -7 c15 -3 68 -23 119 -43z m-1681 -1 c-9 -17 -31 -38
-49 -47 -17 -9 -51 -30 -74 -46 -50 -33 -54 -29 -17 20 25 33 143 117 151 108
3 -2 -3 -18 -11 -35z m1838 -8 c37 -27 78 -64 89 -83 l22 -35 -35 23 c-19 13
-56 35 -82 50 -28 16 -53 40 -62 60 -9 17 -12 32 -8 32 5 0 39 -21 76 -47z
m-956 -109 l3 -131 -128 -6 c-70 -4 -150 -9 -177 -13 l-49 -7 7 129 c4 71 11
133 15 137 8 8 218 25 286 23 l40 -1 3 -131z m192 125 c91 -6 147 -14 152 -22
4 -7 8 -68 8 -136 l0 -124 -47 7 c-27 4 -103 9 -170 13 l-123 6 0 134 c0 120
2 133 18 133 9 0 82 -5 162 -11z m-544 -65 c-3 -26 -6 -87 -6 -135 0 -85 -1
-89 -22 -89 -13 0 -73 -10 -134 -21 -65 -13 -123 -19 -139 -15 l-28 7 7 90
c11 142 12 145 60 158 63 18 218 50 245 50 23 1 23 -1 17 -45z m920 12 c52
-13 97 -25 99 -28 6 -6 29 -258 24 -262 -2 -2 -50 7 -107 19 -57 13 -127 27
-156 30 l-53 7 -7 96 c-3 54 -6 114 -6 136 l0 38 56 -7 c30 -3 98 -17 150 -29z
m-1493 -69 c-9 -31 -19 -57 -23 -57 -4 0 -42 -23 -85 -51 -42 -27 -79 -48 -82
-46 -2 3 7 29 20 59 22 49 34 62 103 107 43 28 79 50 80 48 2 -1 -5 -28 -13
-60z m1972 -20 c32 -26 91 -124 81 -134 -1 -2 -34 17 -71 42 -38 25 -77 47
-86 50 -10 4 -26 30 -38 66 l-20 60 49 -27 c26 -14 65 -40 85 -57z m-1729 1
c-3 -29 -6 -81 -6 -116 l0 -64 -127 8 c-71 3 -129 7 -130 8 -2 1 2 30 8 64
l11 61 102 39 c123 48 129 50 140 51 5 1 6 -23 2 -51z m1479 18 c137 -49 140
-51 153 -135 11 -66 16 -191 8 -191 -2 0 -28 11 -57 24 -30 13 -86 34 -125 46
l-71 23 -6 116 c-3 64 -9 124 -12 134 -10 24 0 22 110 -17z m-1889 -44 c-17
-16 -18 -16 -5 5 7 12 15 20 18 17 3 -2 -3 -12 -13 -22z m137 -90 l-6 -52 -78
0 c-44 0 -79 2 -79 4 0 7 163 106 167 103 1 -2 0 -27 -4 -55z m-172 1 c-14
-35 -25 -49 -42 -51 -22 -4 -22 -4 -4 25 18 28 56 73 62 73 1 0 -6 -21 -16
-47z m2341 -78 l30 -60 -45 43 c-24 24 -50 60 -56 80 -7 20 -15 44 -17 52 -11
33 60 -59 88 -115z m-1214 -2 c4 -63 16 -60 -161 -38 -187 23 -187 23 -187 46
0 11 6 22 14 25 17 6 238 22 291 20 l40 -1 3 -52z m-358 6 c0 -19 -4 -20 -72
-13 -40 3 -74 8 -76 9 -4 4 94 22 126 24 16 1 22 -5 22 -20z m-411 -43 c-5 -5
-177 -76 -184 -76 -3 0 -5 18 -5 40 l0 40 97 0 c53 0 94 -2 92 -4z"/>
<path d="M4207 3253 c-21 -40 -73 -83 -100 -83 -16 0 -11 -6 19 -19 42 -19 84
-63 84 -87 0 -8 5 -14 10 -14 6 0 10 6 10 14 0 24 42 68 84 87 24 11 33 19 22
19 -28 0 -86 48 -101 83 l-13 31 -15 -31z"/>
<path d="M2105 2940 c-4 -6 -4 -66 0 -133 5 -96 13 -142 37 -215 l30 -93 121
3 122 3 28 95 c25 85 27 108 25 220 l-3 125 -82 3 -83 3 0 -151 c0 -93 -4
-150 -10 -150 -5 0 -11 8 -11 18 -1 9 -4 76 -8 147 l-6 130 -77 3 c-47 2 -79
-1 -83 -8z"/>
<path d="M2506 2913 c-3 -21 -6 -120 -6 -220 l0 -181 103 -7 c56 -3 156 -5
222 -3 l120 3 0 60 0 60 -138 9 c-178 11 -182 30 -6 30 l124 1 3 56 3 56 -47
7 c-26 3 -85 6 -131 6 -63 0 -84 3 -80 13 3 9 37 11 141 8 l137 -4 -3 69 -3
69 -216 3 -216 2 -7 -37z"/>
<path d="M3010 2922 c0 -24 5 -31 25 -36 33 -8 45 -1 45 30 0 17 -6 24 -19 24
-11 0 -26 3 -35 6 -12 5 -16 -1 -16 -24z"/>
<path d="M1770 2928 c-74 -5 -139 -13 -143 -17 -8 -8 13 -415 23 -431 4 -6 35
-8 83 -4 l77 7 0 78 0 79 30 2 c81 5 75 10 80 -72 6 -86 5 -86 106 -75 l64 7
-1 61 c-2 110 -8 121 -68 144 -24 9 -24 9 12 31 36 21 37 23 37 82 0 55 -3 65
-29 91 -33 33 -34 33 -271 17z m134 -137 c8 -12 -19 -21 -65 -21 -28 0 -39 4
-39 15 0 11 12 15 49 15 28 0 52 -4 55 -9z"/>
<path d="M3135 2918 c-6 -20 -36 -420 -32 -425 5 -4 316 -33 365 -33 49 0 79
35 87 102 8 64 -3 93 -40 102 -34 9 -32 23 5 31 38 8 50 30 53 99 2 49 -1 59
-25 83 -25 25 -36 27 -170 39 -188 17 -238 17 -243 2z m234 -134 c17 -4 31
-10 31 -15 0 -12 -97 -12 -104 0 -13 20 16 26 73 15z m19 -172 c3 -10 -9 -12
-49 -10 -32 2 -54 8 -57 16 -3 10 9 12 49 10 32 -2 54 -8 57 -16z"/>
<path d="M1335 2889 c-82 -10 -160 -18 -172 -18 -20 -1 -23 -6 -23 -38 0 -63
40 -397 48 -404 7 -7 414 35 430 44 9 6 0 112 -10 123 -4 3 -65 0 -137 -7
-117 -11 -155 -10 -139 6 3 3 58 12 122 19 65 8 120 17 124 20 8 8 3 99 -7
108 -3 4 -59 2 -124 -4 -107 -10 -141 -8 -124 8 5 6 206 32 250 34 19 0 22 26
11 93 -7 37 -7 37 -53 36 -25 -1 -113 -10 -196 -20z"/>
<path d="M3651 2854 c-37 -33 -44 -58 -62 -221 -11 -101 -11 -114 4 -137 29
-44 62 -57 165 -69 109 -12 134 -5 166 46 17 27 50 277 41 309 -19 61 -65 83
-201 94 -79 6 -81 6 -113 -22z m146 -146 c-3 -18 -9 -59 -13 -90 -4 -42 -10
-58 -21 -58 -12 0 -14 9 -9 48 4 26 9 66 13 90 3 28 10 42 20 42 12 0 14 -8
10 -32z"/>
<path d="M890 2830 c-158 -27 -165 -29 -193 -61 -28 -30 -29 -36 -24 -96 8
-80 23 -112 65 -136 31 -18 39 -19 127 -6 87 11 119 9 102 -7 -4 -4 -59 -15
-123 -25 -65 -10 -123 -20 -129 -23 -13 -5 -3 -102 12 -117 11 -11 319 38 361
56 44 20 65 70 56 133 -10 72 -29 109 -65 128 -30 15 -43 15 -131 4 -91 -12
-129 -9 -101 8 7 4 68 16 135 26 68 10 125 19 127 22 2 2 0 30 -5 61 -7 47
-13 58 -29 60 -11 1 -94 -11 -185 -27z"/>
<path d="M4014 2827 c-3 -8 -6 -40 -7 -72 -2 -59 -2 -59 28 -65 39 -7 40 -18
16 -170 -11 -68 -19 -125 -17 -127 5 -6 109 -23 136 -23 l27 0 22 134 c11 73
21 136 21 140 0 3 20 6 44 6 l43 0 11 67 c6 37 9 69 7 72 -5 5 -280 50 -308
51 -10 0 -20 -6 -23 -13z"/>
<path d="M2990 2782 c0 -12 58 -27 67 -18 9 9 2 13 -34 21 -20 4 -33 3 -33 -3z"/>
<path d="M3003 2593 c9 -14 47 -24 47 -12 0 5 -4 9 -9 9 -5 0 -17 3 -27 7 -11
4 -15 3 -11 -4z"/>
<path d="M4275 2500 c-6 -26 -1 -37 29 -70 71 -78 37 -129 -114 -174 -46 -14
-235 -45 -278 -46 -8 0 -12 -9 -10 -22 2 -19 10 -24 46 -26 59 -4 265 32 336
59 97 38 148 100 132 164 -7 28 -64 95 -107 126 l-27 19 -7 -30z"/>
<path d="M2207 2453 c-2 -5 -1 -34 3 -67 8 -71 24 -86 93 -86 48 0 85 13 99
34 4 6 8 37 8 69 l0 57 -35 0 -34 0 -3 -57 c-2 -48 -6 -58 -22 -61 -28 -6 -46
25 -46 75 0 41 -1 43 -29 43 -17 0 -32 -3 -34 -7z"/>
<path d="M2430 2440 c0 -16 7 -20 30 -20 l30 0 0 -60 0 -60 35 0 35 0 0 60 0
60 30 0 c23 0 30 4 30 20 0 19 -7 20 -95 20 -88 0 -95 -1 -95 -20z"/>
<path d="M2650 2380 l0 -80 35 0 35 0 0 80 0 80 -35 0 -35 0 0 -80z"/>
<path d="M2795 2451 c-45 -19 -61 -73 -37 -118 26 -48 142 -55 188 -12 31 29
31 70 1 105 -19 22 -34 28 -78 30 -30 2 -63 0 -74 -5z m89 -44 c28 -21 17 -61
-17 -65 -49 -6 -73 30 -41 62 19 19 35 20 58 3z"/>
<path d="M1855 2443 c-57 -11 -67 -15 -85 -33 -28 -28 -26 -75 5 -105 19 -20
34 -25 77 -25 63 0 98 16 116 52 30 64 -34 127 -113 111z m45 -58 c10 -12 10
-21 2 -40 -19 -40 -82 -29 -82 15 0 37 55 55 80 25z"/>
<path d="M1871 2383 c0 -4 4 -17 9 -28 8 -19 9 -19 9 2 1 12 -3 25 -9 28 -5 3
-10 3 -9 -2z"/>
<path d="M2002 2373 l3 -78 60 -3 c84 -4 125 4 125 28 0 16 -6 18 -60 13 l-60
-6 0 62 0 61 -35 0 -36 0 3 -77z"/>
<path d="M3000 2393 c0 -32 -3 -68 -6 -79 -5 -19 -1 -22 30 -26 34 -4 36 -2
37 27 0 16 4 38 8 49 6 16 12 12 43 -31 29 -41 43 -51 74 -56 21 -4 39 -5 41
-3 2 1 6 37 9 79 7 76 7 76 -19 82 -38 10 -47 -1 -47 -53 l-1 -47 -25 30 c-68
83 -71 85 -108 85 l-36 0 0 -57z"/>
<path d="M2157 2398 c6 -43 10 -55 16 -47 7 8 -5 89 -13 89 -4 0 -6 -19 -3
-42z"/>
<path d="M1593 2419 c-18 -5 -41 -21 -50 -36 -16 -25 -16 -26 6 -44 15 -12 39
-19 68 -19 25 0 42 -4 38 -9 -3 -6 -27 -7 -54 -4 -55 6 -73 -8 -39 -31 55 -39
168 -6 168 49 0 27 -17 35 -76 35 -24 0 -44 5 -44 10 0 6 27 10 62 10 l62 0
-20 20 c-24 25 -77 33 -121 19z"/>
<path d="M3300 2417 c-32 -16 -39 -61 -13 -75 10 -6 35 -13 56 -17 20 -4 37
-12 37 -17 0 -6 -9 -7 -22 -3 -13 4 -40 10 -61 12 -37 5 -38 4 -27 -16 14 -28
49 -41 105 -41 35 0 48 5 64 26 31 40 13 60 -73 79 -15 3 -26 8 -23 11 3 3 29
1 58 -5 28 -6 54 -9 56 -7 12 12 -22 46 -55 56 -48 13 -71 12 -102 -3z"/>
<path d="M3569 2386 l-13 -35 -33 25 c-19 14 -38 24 -44 22 -6 -2 7 -17 30
-32 23 -16 41 -30 41 -31 0 -2 -13 -33 -30 -70 l-30 -67 -31 26 c-17 14 -36
26 -42 26 -7 0 6 -15 27 -34 l40 -33 -44 -74 c-35 -60 -85 -137 -131 -201 -3
-5 -37 12 -75 38 l-69 46 64 129 c35 71 61 133 57 136 -7 8 0 21 -71 -125 -33
-68 -63 -125 -66 -127 -3 -2 -38 9 -78 25 -40 17 -79 30 -86 30 -26 0 -25 20
5 105 33 95 35 105 20 105 -5 0 -10 -6 -10 -14 0 -25 -62 -186 -70 -181 -5 3
-43 12 -87 20 -43 9 -87 18 -99 20 -21 5 -21 6 -8 77 7 40 13 87 12 103 0 20
-3 14 -9 -20 -5 -27 -14 -74 -20 -103 l-11 -54 -59 6 c-32 3 -86 9 -119 12
l-59 6 -4 136 -3 137 -2 -137 -2 -136 -62 -6 c-35 -3 -90 -7 -123 -9 l-60 -2
-14 80 c-8 44 -16 74 -19 67 -2 -7 1 -42 8 -79 6 -36 9 -67 7 -70 -3 -2 -45
-13 -93 -23 -49 -10 -95 -20 -103 -22 -10 -2 -25 28 -50 97 -20 55 -37 93 -39
85 -2 -13 28 -111 53 -171 5 -14 -5 -21 -47 -34 -29 -10 -70 -26 -90 -36 -21
-11 -41 -19 -45 -19 -5 0 -35 54 -68 120 -33 67 -61 116 -63 111 -2 -6 23 -63
54 -127 40 -81 54 -119 46 -122 -7 -2 -36 -19 -64 -38 -28 -19 -55 -37 -59
-40 -8 -4 -116 154 -160 234 l-24 44 30 26 c17 15 41 35 55 44 14 9 20 17 14
17 -7 1 -34 -14 -61 -33 l-49 -34 -29 66 -29 65 34 29 c19 15 29 28 23 28 -6
0 -21 -8 -34 -19 -22 -17 -24 -17 -37 -2 -11 14 -12 14 -10 -5 2 -12 -16 -43
-47 -80 -27 -32 -52 -63 -56 -67 -8 -10 -50 96 -53 130 -2 43 -22 23 -41 -42
-11 -36 -23 -65 -26 -65 -4 0 -9 27 -13 60 -7 61 -26 84 -26 31 0 -49 30 -188
60 -282 39 -119 126 -288 199 -385 77 -103 236 -256 335 -323 355 -239 821
-305 1216 -171 336 114 628 365 788 678 29 55 68 147 87 204 34 101 72 295 60
306 -10 11 -25 -21 -26 -58 -1 -38 -16 -104 -18 -80 -2 37 -46 150 -58 150 -7
0 -10 -6 -7 -15 7 -18 -36 -150 -45 -138 -4 4 -31 34 -60 65 -52 56 -53 57
-41 93 16 47 6 57 -11 11z m-2361 -133 c22 -68 22 -68 3 -121 -10 -29 -20 -55
-23 -58 -3 -2 -15 19 -27 48 -19 47 -20 60 -11 108 21 112 27 115 58 23z m187
0 l27 -62 -51 -57 c-28 -30 -51 -61 -51 -67 -1 -7 -16 17 -34 53 -27 51 -32
69 -24 85 10 19 100 117 104 112 0 -1 14 -30 29 -64z m2271 -57 c6 -25 -39
-126 -56 -126 -6 0 -10 4 -10 8 0 4 -22 33 -48 63 l-49 54 30 64 30 65 49 -53
c26 -29 51 -63 54 -75z m109 18 c6 -41 2 -61 -16 -104 l-23 -54 -11 45 c-7 24
-16 53 -22 64 -8 15 -4 36 15 89 l26 70 12 -30 c7 -16 16 -52 19 -80z m-2315
-91 c14 -26 53 -90 88 -142 l63 -94 -29 -31 c-16 -17 -36 -41 -44 -54 l-16
-23 -48 56 c-27 31 -72 90 -101 132 l-52 76 21 31 c24 36 79 96 87 96 4 0 17
-21 31 -47z m2095 -10 c25 -32 45 -63 45 -69 0 -15 -91 -145 -148 -211 l-46
-55 -16 23 c-8 13 -28 38 -44 56 l-28 33 70 108 c38 59 77 122 86 140 9 17 21
32 26 32 5 0 30 -26 55 -57z m-2281 -12 c28 -57 28 -60 13 -102 -9 -24 -17
-53 -19 -63 -5 -30 -58 75 -58 114 0 37 20 110 30 110 3 0 19 -26 34 -59z
m2438 -14 c12 -54 11 -60 -12 -103 -14 -25 -28 -47 -31 -50 -4 -2 -15 23 -26
55 l-20 58 29 58 c34 66 43 64 60 -18z m-1254 -124 l-3 -158 -80 -5 c-44 -3
-82 -4 -84 -3 -5 4 -71 282 -71 300 0 12 43 17 178 21 l63 2 -3 -157z m243
139 c6 -6 -55 -302 -63 -306 -2 -1 -39 1 -83 4 l-80 5 -3 159 -3 159 113 -8
c62 -3 116 -10 119 -13z m-486 -44 c4 -24 18 -90 31 -146 13 -57 24 -108 24
-112 0 -5 -26 -14 -57 -20 -32 -6 -65 -13 -75 -16 -18 -5 -38 33 -108 203
l-39 93 37 9 c66 17 126 29 154 30 23 1 27 -3 33 -41z m595 31 c116 -26 121
-29 114 -52 -12 -42 -117 -277 -123 -277 -3 0 -22 4 -41 9 -19 5 -51 12 -71
15 l-37 6 23 98 c13 53 28 123 35 155 13 64 16 65 100 46z m-799 -121 c18 -46
45 -109 61 -140 15 -32 28 -61 28 -66 0 -13 -121 -55 -130 -45 -48 52 -186
260 -178 268 8 9 155 64 169 65 12 0 27 -26 50 -82z m1043 52 c95 -36 94 -31
13 -151 -40 -58 -82 -119 -94 -134 l-23 -27 -62 22 c-35 13 -64 24 -66 26 -2
1 12 33 31 70 19 38 47 101 62 139 15 39 30 74 32 78 6 10 34 4 107 -23z
m-1589 -197 l47 -53 -13 -50 c-7 -27 -16 -50 -20 -50 -11 0 -137 139 -170 187
-34 48 -34 52 -13 122 l16 54 52 -79 c29 -44 74 -103 101 -131z m2164 166 c28
-81 6 -129 -124 -264 l-57 -60 -17 50 -18 49 58 69 c32 38 75 96 96 128 21 32
41 59 45 59 3 0 11 -14 17 -31z m63 -81 c-20 -42 -31 -56 -31 -41 -1 20 50
115 58 107 2 -1 -10 -31 -27 -66z m-2448 18 c14 -25 26 -55 26 -68 -1 -17 -8
-9 -30 32 -44 83 -41 112 4 36z m580 -31 c26 -42 68 -102 93 -136 25 -33 44
-61 42 -62 -2 -2 -24 -16 -49 -32 l-44 -28 -113 117 c-62 65 -113 123 -113
130 0 12 108 86 126 86 6 0 32 -34 58 -75z m1405 35 l62 -40 -21 -29 c-11 -16
-62 -73 -113 -127 l-92 -97 -52 32 -52 32 42 52 c23 29 66 89 96 135 29 45 57
82 61 82 4 0 35 -18 69 -40z m-1524 -149 c42 -50 92 -102 111 -116 19 -14 34
-29 34 -33 0 -4 -13 -23 -29 -41 l-29 -35 -58 40 c-69 47 -194 162 -194 178 0
14 68 96 79 96 5 0 43 -40 86 -89z m1649 42 c20 -25 36 -50 36 -54 0 -16 -234
-209 -254 -209 -3 0 -19 14 -35 32 l-29 32 109 115 c60 63 109 118 109 123 0
22 31 3 64 -39z m-1937 -115 c50 -53 73 -84 73 -102 0 -13 3 -32 7 -41 12 -33
-46 15 -108 89 -60 71 -92 127 -103 181 l-6 30 32 -40 c18 -22 66 -75 105
-117z m2198 56 c-16 -32 -62 -92 -110 -142 l-82 -87 11 55 c8 42 19 62 48 88
20 18 63 65 95 104 66 81 83 73 38 -18z m-1157 -106 l-3 -133 -36 -3 c-42 -4
-45 1 -95 153 l-33 100 32 6 c18 4 56 7 85 8 l53 1 -3 -132z m171 117 c5 -6
-38 -142 -64 -201 -22 -51 -26 -54 -59 -54 l-36 0 0 136 0 136 78 -7 c42 -4
79 -9 81 -10z m-319 -97 c18 -57 38 -115 46 -130 16 -30 13 -33 -37 -42 -35
-6 -37 -5 -78 53 -35 50 -111 177 -111 185 0 2 26 9 58 16 31 7 62 14 67 15 6
2 13 4 16 4 4 1 21 -45 39 -101z m428 82 c29 -7 52 -18 52 -24 0 -17 -105
-185 -133 -213 -18 -18 -28 -21 -57 -14 -22 5 -34 13 -33 22 2 8 21 66 43 129
22 63 40 116 40 117 0 1 16 -2 88 -17z m-1148 -64 c32 -29 90 -77 128 -105
l70 -52 -11 -35 c-6 -18 -13 -34 -16 -34 -12 0 -186 116 -223 149 -21 18 -38
38 -38 45 0 19 21 86 27 86 3 0 31 -24 63 -54z m1831 -2 c8 -36 7 -41 -24 -68
-32 -29 -220 -156 -230 -156 -6 0 -31 70 -25 74 34 22 165 124 203 159 28 25
54 42 58 37 5 -4 13 -25 18 -46z m-1282 0 c14 -25 48 -80 77 -122 l53 -77 -27
-11 c-24 -10 -32 -7 -74 28 -48 40 -181 179 -176 184 6 5 103 43 113 43 6 1
21 -20 34 -45z m736 25 c30 -11 55 -25 55 -30 0 -5 -47 -56 -105 -114 -102
-102 -105 -104 -132 -93 -16 7 -29 13 -31 14 -2 1 17 30 41 65 25 35 59 90 77
122 17 31 34 57 36 57 2 0 28 -9 59 -21z m-700 -268 c-13 -13 -19 -13 -52 3
-40 19 -156 100 -211 147 l-32 29 45 28 46 29 109 -111 c97 -97 108 -112 95
-125z m854 185 c13 -16 -29 -53 -162 -141 -78 -52 -90 -57 -112 -47 -24 11
-22 13 88 124 l112 114 32 -19 c17 -10 36 -24 42 -31z m-1324 -151 c51 -29 64
-42 67 -66 5 -36 1 -36 -65 -3 -151 76 -186 107 -202 182 l-7 32 72 -54 c40
-29 100 -70 135 -91z m1704 73 c-10 -32 -25 -46 -83 -83 -77 -47 -165 -90
-172 -82 -3 3 -2 16 2 31 4 18 25 37 68 63 33 20 90 58 126 85 37 27 66 44 69
37 2 -6 -2 -29 -10 -51z m-1473 5 c32 -25 92 -67 131 -93 56 -36 70 -49 61
-58 -7 -7 -19 -12 -28 -12 -18 0 -243 111 -274 135 -19 15 -19 16 9 45 16 16
32 30 35 30 4 0 33 -21 66 -47z m1158 15 l25 -32 -32 -19 c-44 -27 -172 -92
-229 -116 -46 -19 -48 -19 -57 -2 -9 15 1 25 62 64 40 25 97 66 127 91 30 24
60 45 67 45 6 1 23 -13 37 -31z m-1127 -136 c43 -21 93 -45 110 -52 25 -12 30
-18 23 -30 -8 -13 -17 -13 -72 2 -35 9 -103 34 -153 55 -81 35 -90 41 -87 63
5 52 9 53 56 26 24 -14 79 -43 123 -64z m1167 72 c18 -47 8 -60 -67 -92 -107
-45 -197 -73 -220 -70 -43 6 -25 26 55 62 46 21 112 55 148 76 76 45 76 45 84
24z m-486 -42 c104 -33 171 -100 156 -157 -10 -41 -81 -93 -159 -118 -90 -28
-270 -30 -356 -4 -100 30 -168 89 -169 145 -1 59 85 120 204 148 81 18 241 11
324 -14z m-836 -136 c9 -12 13 -22 8 -24 -20 -7 -164 73 -212 118 l-53 49 120
-61 c66 -34 128 -71 137 -82z m1504 89 c-45 -40 -179 -115 -206 -115 -7 0 -5
9 4 23 14 19 215 132 241 135 6 1 -12 -19 -39 -43z m-1465 -14 c65 -29 130
-51 207 -71 26 -7 42 -16 42 -26 0 -12 -8 -14 -37 -8 -73 12 -248 59 -261 69
-4 3 -21 65 -18 65 2 0 32 -13 67 -29z m1279 -20 c-6 -13 -35 -28 -75 -40 -74
-23 -224 -55 -230 -49 -12 12 21 31 84 49 41 12 108 35 150 53 78 33 95 30 71
-13z m-1170 -76 c63 -15 125 -29 138 -31 46 -9 20 -24 -43 -24 -101 0 -191 26
-217 63 -14 19 -16 28 -7 24 8 -3 66 -17 129 -32z m1124 4 c-38 -37 -117 -59
-219 -59 -90 0 -75 17 31 36 44 7 106 22 139 33 82 26 84 25 49 -10z m-1224
-44 c17 -9 30 -18 30 -21 0 -4 -59 23 -69 32 -10 9 13 3 39 -11z m1217 -6
c-22 -11 -41 -18 -43 -16 -5 5 56 37 71 36 6 0 -7 -9 -28 -20z m-1019 -25 c58
-5 96 -12 103 -20 19 -24 -145 -18 -198 6 -46 20 -58 36 -20 26 12 -3 64 -9
115 -12z m923 -6 c-28 -18 -54 -23 -128 -26 -63 -3 -93 -1 -93 7 0 14 32 20
240 39 8 1 0 -8 -19 -20z m-746 -52 c18 -13 16 -15 -27 -21 -30 -5 -67 -2
-100 6 l-53 13 40 7 c71 11 121 9 140 -5z m610 5 c29 -7 28 -8 -23 -20 -33 -8
-71 -10 -100 -6 -43 6 -45 8 -27 21 20 15 96 17 150 5z m-405 -38 c125 -5 168
-16 115 -29 -48 -12 -344 12 -328 26 13 12 46 19 68 13 11 -3 76 -7 145 -10z
m245 3 l30 -13 -50 -5 c-29 -4 -58 -1 -70 5 -19 10 -18 12 10 18 43 10 47 9
80 -5z"/>
</g>
</svg>
